<mxfile host="app.diagrams.net" modified="2023-04-25T20:32:07.573Z" agent="Mozilla/5.0 (Windows NT 10.0; Win64; x64; rv:109.0) Gecko/20100101 Firefox/112.0" etag="gVEFQv1C_ub5834ar04p" version="21.2.2" type="device">
  <diagram name="Page-1" id="Wpp4AvojSfgIg56Ua0PG">
    <mxGraphModel dx="1975" dy="1785" grid="1" gridSize="10" guides="1" tooltips="1" connect="1" arrows="1" fold="1" page="1" pageScale="1" pageWidth="850" pageHeight="1100" math="0" shadow="0">
      <root>
        <mxCell id="0" />
        <mxCell id="1" parent="0" />
        <mxCell id="R4uhG9D8vYYGGegYqyb0-5" style="edgeStyle=orthogonalEdgeStyle;rounded=0;orthogonalLoop=1;jettySize=auto;html=1;entryX=0.5;entryY=1;entryDx=0;entryDy=0;startArrow=classic;startFill=1;" edge="1" parent="1" source="R4uhG9D8vYYGGegYqyb0-6" target="R4uhG9D8vYYGGegYqyb0-10">
          <mxGeometry relative="1" as="geometry" />
        </mxCell>
        <mxCell id="R4uhG9D8vYYGGegYqyb0-6" value="" style="fontColor=#0066CC;verticalAlign=top;verticalLabelPosition=bottom;labelPosition=center;align=center;html=1;outlineConnect=0;fillColor=#CCCCCC;strokeColor=#6881B3;gradientColor=none;gradientDirection=north;strokeWidth=2;shape=mxgraph.networks.server;" vertex="1" parent="1">
          <mxGeometry x="1535" y="280" width="90" height="100" as="geometry" />
        </mxCell>
        <mxCell id="R4uhG9D8vYYGGegYqyb0-7" value="" style="swimlane;startSize=0;" vertex="1" parent="1">
          <mxGeometry x="750" y="-20" width="970" height="170" as="geometry">
            <mxRectangle x="810" y="135" width="50" height="40" as="alternateBounds" />
          </mxGeometry>
        </mxCell>
        <mxCell id="R4uhG9D8vYYGGegYqyb0-8" value="" style="rounded=0;whiteSpace=wrap;html=1;" vertex="1" parent="R4uhG9D8vYYGGegYqyb0-7">
          <mxGeometry x="732.5" y="100" width="50" height="50" as="geometry" />
        </mxCell>
        <mxCell id="R4uhG9D8vYYGGegYqyb0-9" value="" style="rounded=0;whiteSpace=wrap;html=1;" vertex="1" parent="R4uhG9D8vYYGGegYqyb0-7">
          <mxGeometry x="787.5" y="100" width="50" height="50" as="geometry" />
        </mxCell>
        <mxCell id="R4uhG9D8vYYGGegYqyb0-10" value="" style="rounded=0;whiteSpace=wrap;html=1;" vertex="1" parent="R4uhG9D8vYYGGegYqyb0-7">
          <mxGeometry x="842.5" y="100" width="50" height="50" as="geometry" />
        </mxCell>
        <mxCell id="R4uhG9D8vYYGGegYqyb0-11" value="" style="rounded=0;whiteSpace=wrap;html=1;" vertex="1" parent="R4uhG9D8vYYGGegYqyb0-7">
          <mxGeometry x="897.5" y="100" width="50" height="50" as="geometry" />
        </mxCell>
        <mxCell id="R4uhG9D8vYYGGegYqyb0-12" value="&lt;font style=&quot;font-size: 48px;&quot;&gt;SWITCH DLINK&lt;/font&gt;" style="text;html=1;strokeColor=none;fillColor=none;align=center;verticalAlign=middle;whiteSpace=wrap;rounded=0;" vertex="1" parent="R4uhG9D8vYYGGegYqyb0-7">
          <mxGeometry x="280" y="10" width="400" height="30" as="geometry" />
        </mxCell>
        <mxCell id="R4uhG9D8vYYGGegYqyb0-13" value="&lt;font style=&quot;font-size: 24px;&quot;&gt;13&lt;/font&gt;" style="text;html=1;strokeColor=none;fillColor=none;align=center;verticalAlign=middle;whiteSpace=wrap;rounded=0;" vertex="1" parent="R4uhG9D8vYYGGegYqyb0-7">
          <mxGeometry x="727.5" y="110" width="60" height="30" as="geometry" />
        </mxCell>
        <mxCell id="R4uhG9D8vYYGGegYqyb0-14" value="&lt;font style=&quot;font-size: 24px;&quot;&gt;14&lt;/font&gt;" style="text;html=1;strokeColor=none;fillColor=none;align=center;verticalAlign=middle;whiteSpace=wrap;rounded=0;" vertex="1" parent="R4uhG9D8vYYGGegYqyb0-7">
          <mxGeometry x="782.5" y="110" width="60" height="30" as="geometry" />
        </mxCell>
        <mxCell id="R4uhG9D8vYYGGegYqyb0-15" value="&lt;font style=&quot;font-size: 24px;&quot;&gt;15&lt;/font&gt;" style="text;html=1;strokeColor=none;fillColor=none;align=center;verticalAlign=middle;whiteSpace=wrap;rounded=0;" vertex="1" parent="R4uhG9D8vYYGGegYqyb0-7">
          <mxGeometry x="837.5" y="110" width="60" height="30" as="geometry" />
        </mxCell>
        <mxCell id="R4uhG9D8vYYGGegYqyb0-16" value="&lt;font style=&quot;font-size: 24px;&quot;&gt;16&lt;/font&gt;" style="text;html=1;strokeColor=none;fillColor=none;align=center;verticalAlign=middle;whiteSpace=wrap;rounded=0;" vertex="1" parent="R4uhG9D8vYYGGegYqyb0-7">
          <mxGeometry x="892.5" y="110" width="60" height="30" as="geometry" />
        </mxCell>
        <mxCell id="R4uhG9D8vYYGGegYqyb0-17" value="" style="rounded=0;whiteSpace=wrap;html=1;" vertex="1" parent="R4uhG9D8vYYGGegYqyb0-7">
          <mxGeometry x="497.5" y="100" width="50" height="50" as="geometry" />
        </mxCell>
        <mxCell id="R4uhG9D8vYYGGegYqyb0-18" value="" style="rounded=0;whiteSpace=wrap;html=1;" vertex="1" parent="R4uhG9D8vYYGGegYqyb0-7">
          <mxGeometry x="552.5" y="100" width="50" height="50" as="geometry" />
        </mxCell>
        <mxCell id="R4uhG9D8vYYGGegYqyb0-19" value="" style="rounded=0;whiteSpace=wrap;html=1;" vertex="1" parent="R4uhG9D8vYYGGegYqyb0-7">
          <mxGeometry x="607.5" y="100" width="50" height="50" as="geometry" />
        </mxCell>
        <mxCell id="R4uhG9D8vYYGGegYqyb0-20" value="" style="rounded=0;whiteSpace=wrap;html=1;" vertex="1" parent="R4uhG9D8vYYGGegYqyb0-7">
          <mxGeometry x="662.5" y="100" width="50" height="50" as="geometry" />
        </mxCell>
        <mxCell id="R4uhG9D8vYYGGegYqyb0-21" value="&lt;font style=&quot;font-size: 24px;&quot;&gt;9&lt;/font&gt;" style="text;html=1;strokeColor=none;fillColor=none;align=center;verticalAlign=middle;whiteSpace=wrap;rounded=0;" vertex="1" parent="R4uhG9D8vYYGGegYqyb0-7">
          <mxGeometry x="492.5" y="110" width="60" height="30" as="geometry" />
        </mxCell>
        <mxCell id="R4uhG9D8vYYGGegYqyb0-22" value="&lt;font style=&quot;font-size: 24px;&quot;&gt;10&lt;/font&gt;" style="text;html=1;strokeColor=none;fillColor=none;align=center;verticalAlign=middle;whiteSpace=wrap;rounded=0;" vertex="1" parent="R4uhG9D8vYYGGegYqyb0-7">
          <mxGeometry x="547.5" y="110" width="60" height="30" as="geometry" />
        </mxCell>
        <mxCell id="R4uhG9D8vYYGGegYqyb0-23" value="&lt;font style=&quot;font-size: 24px;&quot;&gt;11&lt;/font&gt;" style="text;html=1;strokeColor=none;fillColor=none;align=center;verticalAlign=middle;whiteSpace=wrap;rounded=0;" vertex="1" parent="R4uhG9D8vYYGGegYqyb0-7">
          <mxGeometry x="602.5" y="110" width="60" height="30" as="geometry" />
        </mxCell>
        <mxCell id="R4uhG9D8vYYGGegYqyb0-24" value="&lt;font style=&quot;font-size: 24px;&quot;&gt;12&lt;/font&gt;" style="text;html=1;strokeColor=none;fillColor=none;align=center;verticalAlign=middle;whiteSpace=wrap;rounded=0;" vertex="1" parent="R4uhG9D8vYYGGegYqyb0-7">
          <mxGeometry x="657.5" y="110" width="60" height="30" as="geometry" />
        </mxCell>
        <mxCell id="R4uhG9D8vYYGGegYqyb0-25" value="" style="rounded=0;whiteSpace=wrap;html=1;" vertex="1" parent="R4uhG9D8vYYGGegYqyb0-7">
          <mxGeometry x="257.5" y="100" width="50" height="50" as="geometry" />
        </mxCell>
        <mxCell id="R4uhG9D8vYYGGegYqyb0-26" value="" style="rounded=0;whiteSpace=wrap;html=1;" vertex="1" parent="R4uhG9D8vYYGGegYqyb0-7">
          <mxGeometry x="312.5" y="100" width="50" height="50" as="geometry" />
        </mxCell>
        <mxCell id="R4uhG9D8vYYGGegYqyb0-27" value="" style="rounded=0;whiteSpace=wrap;html=1;" vertex="1" parent="R4uhG9D8vYYGGegYqyb0-7">
          <mxGeometry x="367.5" y="100" width="50" height="50" as="geometry" />
        </mxCell>
        <mxCell id="R4uhG9D8vYYGGegYqyb0-28" value="" style="rounded=0;whiteSpace=wrap;html=1;" vertex="1" parent="R4uhG9D8vYYGGegYqyb0-7">
          <mxGeometry x="422.5" y="100" width="50" height="50" as="geometry" />
        </mxCell>
        <mxCell id="R4uhG9D8vYYGGegYqyb0-29" value="&lt;font style=&quot;font-size: 24px;&quot;&gt;5&lt;/font&gt;" style="text;html=1;strokeColor=none;fillColor=none;align=center;verticalAlign=middle;whiteSpace=wrap;rounded=0;" vertex="1" parent="R4uhG9D8vYYGGegYqyb0-7">
          <mxGeometry x="252.5" y="110" width="60" height="30" as="geometry" />
        </mxCell>
        <mxCell id="R4uhG9D8vYYGGegYqyb0-30" value="&lt;font style=&quot;font-size: 24px;&quot;&gt;6&lt;/font&gt;" style="text;html=1;strokeColor=none;fillColor=none;align=center;verticalAlign=middle;whiteSpace=wrap;rounded=0;" vertex="1" parent="R4uhG9D8vYYGGegYqyb0-7">
          <mxGeometry x="307.5" y="110" width="60" height="30" as="geometry" />
        </mxCell>
        <mxCell id="R4uhG9D8vYYGGegYqyb0-31" value="&lt;font style=&quot;font-size: 24px;&quot;&gt;7&lt;/font&gt;" style="text;html=1;strokeColor=none;fillColor=none;align=center;verticalAlign=middle;whiteSpace=wrap;rounded=0;" vertex="1" parent="R4uhG9D8vYYGGegYqyb0-7">
          <mxGeometry x="362.5" y="110" width="60" height="30" as="geometry" />
        </mxCell>
        <mxCell id="R4uhG9D8vYYGGegYqyb0-32" value="&lt;font style=&quot;font-size: 24px;&quot;&gt;8&lt;/font&gt;" style="text;html=1;strokeColor=none;fillColor=none;align=center;verticalAlign=middle;whiteSpace=wrap;rounded=0;" vertex="1" parent="R4uhG9D8vYYGGegYqyb0-7">
          <mxGeometry x="417.5" y="110" width="60" height="30" as="geometry" />
        </mxCell>
        <mxCell id="R4uhG9D8vYYGGegYqyb0-33" value="" style="rounded=0;whiteSpace=wrap;html=1;" vertex="1" parent="R4uhG9D8vYYGGegYqyb0-7">
          <mxGeometry x="22.5" y="100" width="50" height="50" as="geometry" />
        </mxCell>
        <mxCell id="R4uhG9D8vYYGGegYqyb0-34" value="" style="rounded=0;whiteSpace=wrap;html=1;" vertex="1" parent="R4uhG9D8vYYGGegYqyb0-7">
          <mxGeometry x="77.5" y="100" width="50" height="50" as="geometry" />
        </mxCell>
        <mxCell id="R4uhG9D8vYYGGegYqyb0-35" value="" style="rounded=0;whiteSpace=wrap;html=1;" vertex="1" parent="R4uhG9D8vYYGGegYqyb0-7">
          <mxGeometry x="132.5" y="100" width="50" height="50" as="geometry" />
        </mxCell>
        <mxCell id="R4uhG9D8vYYGGegYqyb0-36" value="" style="rounded=0;whiteSpace=wrap;html=1;" vertex="1" parent="R4uhG9D8vYYGGegYqyb0-7">
          <mxGeometry x="187.5" y="100" width="50" height="50" as="geometry" />
        </mxCell>
        <mxCell id="R4uhG9D8vYYGGegYqyb0-37" value="&lt;font style=&quot;font-size: 24px;&quot;&gt;1&lt;/font&gt;" style="text;html=1;strokeColor=none;fillColor=none;align=center;verticalAlign=middle;whiteSpace=wrap;rounded=0;" vertex="1" parent="R4uhG9D8vYYGGegYqyb0-7">
          <mxGeometry x="17.5" y="110" width="60" height="30" as="geometry" />
        </mxCell>
        <mxCell id="R4uhG9D8vYYGGegYqyb0-38" value="&lt;font style=&quot;font-size: 24px;&quot;&gt;2&lt;/font&gt;" style="text;html=1;strokeColor=none;fillColor=none;align=center;verticalAlign=middle;whiteSpace=wrap;rounded=0;" vertex="1" parent="R4uhG9D8vYYGGegYqyb0-7">
          <mxGeometry x="72.5" y="110" width="60" height="30" as="geometry" />
        </mxCell>
        <mxCell id="R4uhG9D8vYYGGegYqyb0-39" value="&lt;font style=&quot;font-size: 24px;&quot;&gt;3&lt;/font&gt;" style="text;html=1;strokeColor=none;fillColor=none;align=center;verticalAlign=middle;whiteSpace=wrap;rounded=0;" vertex="1" parent="R4uhG9D8vYYGGegYqyb0-7">
          <mxGeometry x="127.5" y="110" width="60" height="30" as="geometry" />
        </mxCell>
        <mxCell id="R4uhG9D8vYYGGegYqyb0-40" value="&lt;font style=&quot;font-size: 24px;&quot;&gt;4&lt;/font&gt;" style="text;html=1;strokeColor=none;fillColor=none;align=center;verticalAlign=middle;whiteSpace=wrap;rounded=0;" vertex="1" parent="R4uhG9D8vYYGGegYqyb0-7">
          <mxGeometry x="182.5" y="110" width="60" height="30" as="geometry" />
        </mxCell>
        <mxCell id="R4uhG9D8vYYGGegYqyb0-41" value="VMs" style="swimlane;whiteSpace=wrap;html=1;" vertex="1" parent="1">
          <mxGeometry x="1700" y="280" width="1140" height="550" as="geometry" />
        </mxCell>
        <mxCell id="R4uhG9D8vYYGGegYqyb0-42" value="" style="fontColor=#0066CC;verticalAlign=top;verticalLabelPosition=bottom;labelPosition=center;align=center;html=1;outlineConnect=0;fillColor=#CCCCCC;strokeColor=#6881B3;gradientColor=none;gradientDirection=north;strokeWidth=2;shape=mxgraph.networks.virtual_server;" vertex="1" parent="R4uhG9D8vYYGGegYqyb0-41">
          <mxGeometry x="515" y="110" width="110" height="120" as="geometry" />
        </mxCell>
        <mxCell id="R4uhG9D8vYYGGegYqyb0-43" value="" style="fontColor=#0066CC;verticalAlign=top;verticalLabelPosition=bottom;labelPosition=center;align=center;html=1;outlineConnect=0;fillColor=#CCCCCC;strokeColor=#6881B3;gradientColor=none;gradientDirection=north;strokeWidth=2;shape=mxgraph.networks.virtual_server;" vertex="1" parent="R4uhG9D8vYYGGegYqyb0-41">
          <mxGeometry x="737.5" y="110" width="110" height="120" as="geometry" />
        </mxCell>
        <mxCell id="R4uhG9D8vYYGGegYqyb0-44" value="" style="fontColor=#0066CC;verticalAlign=top;verticalLabelPosition=bottom;labelPosition=center;align=center;html=1;outlineConnect=0;fillColor=#CCCCCC;strokeColor=#6881B3;gradientColor=none;gradientDirection=north;strokeWidth=2;shape=mxgraph.networks.virtual_server;" vertex="1" parent="R4uhG9D8vYYGGegYqyb0-41">
          <mxGeometry x="967.5" y="110" width="110" height="120" as="geometry" />
        </mxCell>
        <mxCell id="R4uhG9D8vYYGGegYqyb0-45" value="" style="swimlane;startSize=0;" vertex="1" parent="R4uhG9D8vYYGGegYqyb0-41">
          <mxGeometry x="22.5" y="250" width="207.5" height="280" as="geometry">
            <mxRectangle x="1485" y="390" width="50" height="40" as="alternateBounds" />
          </mxGeometry>
        </mxCell>
        <mxCell id="R4uhG9D8vYYGGegYqyb0-46" value="&lt;div style=&quot;font-size: 14px;&quot;&gt;&lt;span style=&quot;background-color: initial; font-family: &amp;quot;Lucida Console&amp;quot;;&quot;&gt;INT 0/1&lt;br&gt;MAC : 00:0C:29:27:8F:C8&lt;/span&gt;&lt;/div&gt;&lt;font style=&quot;font-size: 14px;&quot; face=&quot;Lucida Console&quot;&gt;&lt;div style=&quot;&quot;&gt;IP : 192.168.224.1&lt;br&gt;VLAN : 333&lt;br&gt;&lt;br&gt;INT 0/2&lt;br&gt;&lt;div style=&quot;border-color: var(--border-color); font-family: Helvetica;&quot;&gt;&lt;span style=&quot;border-color: var(--border-color); background-color: initial; font-family: &amp;quot;Lucida Console&amp;quot;;&quot;&gt;MAC : 00:0C:29:27:8F:D2&lt;/span&gt;&lt;/div&gt;&lt;font style=&quot;border-color: var(--border-color);&quot; face=&quot;Lucida Console&quot;&gt;IP : 172.16.0.1&lt;br style=&quot;border-color: var(--border-color);&quot;&gt;VLAN : 555&lt;/font&gt;&lt;/div&gt;&lt;/font&gt;" style="text;html=1;strokeColor=none;fillColor=none;align=left;verticalAlign=middle;whiteSpace=wrap;rounded=0;rotation=90;" vertex="1" parent="R4uhG9D8vYYGGegYqyb0-45">
          <mxGeometry x="-25" y="100" width="295" height="110" as="geometry" />
        </mxCell>
        <mxCell id="R4uhG9D8vYYGGegYqyb0-47" value="" style="swimlane;startSize=0;" vertex="1" parent="R4uhG9D8vYYGGegYqyb0-41">
          <mxGeometry x="477.5" y="250" width="185" height="280" as="geometry">
            <mxRectangle x="1485" y="390" width="50" height="40" as="alternateBounds" />
          </mxGeometry>
        </mxCell>
        <mxCell id="R4uhG9D8vYYGGegYqyb0-48" value="&lt;div style=&quot;font-size: 14px;&quot;&gt;&lt;span style=&quot;background-color: initial; font-family: &amp;quot;Lucida Console&amp;quot;;&quot;&gt;MAC : 00:0C:29:1B:BD:31&lt;/span&gt;&lt;/div&gt;&lt;font style=&quot;font-size: 14px;&quot; face=&quot;Lucida Console&quot;&gt;&lt;div style=&quot;&quot;&gt;&lt;span style=&quot;background-color: initial;&quot;&gt;IP :&amp;nbsp;&lt;br&gt;VLAN : 333&lt;/span&gt;&lt;/div&gt;&lt;/font&gt;" style="text;html=1;strokeColor=none;fillColor=none;align=left;verticalAlign=middle;whiteSpace=wrap;rounded=0;rotation=90;" vertex="1" parent="R4uhG9D8vYYGGegYqyb0-47">
          <mxGeometry x="-25" y="100" width="295" height="110" as="geometry" />
        </mxCell>
        <mxCell id="R4uhG9D8vYYGGegYqyb0-49" value="" style="swimlane;startSize=0;" vertex="1" parent="R4uhG9D8vYYGGegYqyb0-41">
          <mxGeometry x="700" y="250" width="185" height="280" as="geometry">
            <mxRectangle x="1485" y="390" width="50" height="40" as="alternateBounds" />
          </mxGeometry>
        </mxCell>
        <mxCell id="R4uhG9D8vYYGGegYqyb0-50" value="&lt;div style=&quot;font-size: 14px;&quot;&gt;&lt;span style=&quot;background-color: initial; font-family: &amp;quot;Lucida Console&amp;quot;;&quot;&gt;MAC : 00:0C:29:6B:21:C8&lt;/span&gt;&lt;/div&gt;&lt;font style=&quot;font-size: 14px;&quot; face=&quot;Lucida Console&quot;&gt;&lt;div style=&quot;&quot;&gt;&lt;span style=&quot;background-color: initial;&quot;&gt;IP :&amp;nbsp;&lt;br&gt;VLAN : 333&lt;/span&gt;&lt;/div&gt;&lt;/font&gt;" style="text;html=1;strokeColor=none;fillColor=none;align=left;verticalAlign=middle;whiteSpace=wrap;rounded=0;rotation=90;" vertex="1" parent="R4uhG9D8vYYGGegYqyb0-49">
          <mxGeometry x="-25" y="100" width="295" height="110" as="geometry" />
        </mxCell>
        <mxCell id="R4uhG9D8vYYGGegYqyb0-51" value="" style="swimlane;startSize=0;" vertex="1" parent="R4uhG9D8vYYGGegYqyb0-41">
          <mxGeometry x="930" y="250" width="185" height="280" as="geometry">
            <mxRectangle x="1485" y="390" width="50" height="40" as="alternateBounds" />
          </mxGeometry>
        </mxCell>
        <mxCell id="R4uhG9D8vYYGGegYqyb0-52" value="&lt;div style=&quot;font-size: 14px;&quot;&gt;&lt;span style=&quot;background-color: initial; font-family: &amp;quot;Lucida Console&amp;quot;;&quot;&gt;MAC : 00:0C:29:18:44:D2&lt;/span&gt;&lt;/div&gt;&lt;font style=&quot;font-size: 14px;&quot; face=&quot;Lucida Console&quot;&gt;&lt;div style=&quot;&quot;&gt;&lt;span style=&quot;background-color: initial;&quot;&gt;IP : 172.16.0.100&lt;br&gt;VLAN : 555&lt;/span&gt;&lt;/div&gt;&lt;/font&gt;" style="text;html=1;strokeColor=none;fillColor=none;align=left;verticalAlign=middle;whiteSpace=wrap;rounded=0;rotation=90;" vertex="1" parent="R4uhG9D8vYYGGegYqyb0-51">
          <mxGeometry x="-25" y="100" width="295" height="110" as="geometry" />
        </mxCell>
        <mxCell id="R4uhG9D8vYYGGegYqyb0-53" value="" style="shape=mxgraph.cisco.routers.router;sketch=0;html=1;pointerEvents=1;dashed=0;fillColor=#036897;strokeColor=#ffffff;strokeWidth=2;verticalLabelPosition=bottom;verticalAlign=top;align=center;outlineConnect=0;" vertex="1" parent="R4uhG9D8vYYGGegYqyb0-41">
          <mxGeometry x="5" y="125" width="220" height="90" as="geometry" />
        </mxCell>
        <mxCell id="R4uhG9D8vYYGGegYqyb0-54" value="" style="shape=singleArrow;direction=west;whiteSpace=wrap;html=1;" vertex="1" parent="1">
          <mxGeometry x="1620" y="310" width="80" height="60" as="geometry" />
        </mxCell>
        <mxCell id="R4uhG9D8vYYGGegYqyb0-55" value="" style="swimlane;startSize=0;" vertex="1" parent="1">
          <mxGeometry x="1495" y="400" width="185" height="280" as="geometry">
            <mxRectangle x="1485" y="390" width="50" height="40" as="alternateBounds" />
          </mxGeometry>
        </mxCell>
        <mxCell id="R4uhG9D8vYYGGegYqyb0-56" value="&lt;div style=&quot;font-size: 14px;&quot;&gt;&lt;span style=&quot;background-color: initial; font-family: &amp;quot;Lucida Console&amp;quot;;&quot;&gt;MAC : 00:9C:02:A7:F8:8F&lt;/span&gt;&lt;br&gt;&lt;/div&gt;&lt;font style=&quot;font-size: 14px;&quot; face=&quot;Lucida Console&quot;&gt;&lt;div style=&quot;&quot;&gt;&lt;span style=&quot;background-color: initial;&quot;&gt;IP : 192.168.225.15&lt;br&gt;VLAN : 333&lt;/span&gt;&lt;/div&gt;&lt;/font&gt;" style="text;html=1;strokeColor=none;fillColor=none;align=left;verticalAlign=middle;whiteSpace=wrap;rounded=0;rotation=90;" vertex="1" parent="R4uhG9D8vYYGGegYqyb0-55">
          <mxGeometry y="125" width="295" height="60" as="geometry" />
        </mxCell>
        <mxCell id="R4uhG9D8vYYGGegYqyb0-57" style="edgeStyle=orthogonalEdgeStyle;rounded=0;orthogonalLoop=1;jettySize=auto;html=1;startArrow=classic;startFill=1;" edge="1" parent="1" target="R4uhG9D8vYYGGegYqyb0-6">
          <mxGeometry relative="1" as="geometry">
            <Array as="points">
              <mxPoint x="1770" y="405" />
              <mxPoint x="1770" y="340" />
            </Array>
            <mxPoint x="1770" y="405" as="sourcePoint" />
          </mxGeometry>
        </mxCell>
        <mxCell id="R4uhG9D8vYYGGegYqyb0-58" style="edgeStyle=orthogonalEdgeStyle;rounded=0;orthogonalLoop=1;jettySize=auto;html=1;startArrow=classic;startFill=1;" edge="1" parent="1" source="R4uhG9D8vYYGGegYqyb0-42" target="R4uhG9D8vYYGGegYqyb0-6">
          <mxGeometry relative="1" as="geometry">
            <Array as="points">
              <mxPoint x="2270" y="340" />
            </Array>
          </mxGeometry>
        </mxCell>
        <mxCell id="R4uhG9D8vYYGGegYqyb0-59" style="edgeStyle=orthogonalEdgeStyle;rounded=0;orthogonalLoop=1;jettySize=auto;html=1;startArrow=classic;startFill=1;" edge="1" parent="1" source="R4uhG9D8vYYGGegYqyb0-53" target="R4uhG9D8vYYGGegYqyb0-6">
          <mxGeometry relative="1" as="geometry">
            <Array as="points">
              <mxPoint x="1870" y="340" />
            </Array>
            <mxPoint x="2267.5" y="390" as="sourcePoint" />
          </mxGeometry>
        </mxCell>
        <mxCell id="R4uhG9D8vYYGGegYqyb0-60" style="edgeStyle=orthogonalEdgeStyle;rounded=0;orthogonalLoop=1;jettySize=auto;html=1;startArrow=classic;startFill=1;" edge="1" parent="1" source="R4uhG9D8vYYGGegYqyb0-43" target="R4uhG9D8vYYGGegYqyb0-6">
          <mxGeometry relative="1" as="geometry">
            <Array as="points">
              <mxPoint x="2493" y="340" />
            </Array>
          </mxGeometry>
        </mxCell>
        <mxCell id="R4uhG9D8vYYGGegYqyb0-61" style="edgeStyle=orthogonalEdgeStyle;rounded=0;orthogonalLoop=1;jettySize=auto;html=1;startArrow=classic;startFill=1;" edge="1" parent="1" source="R4uhG9D8vYYGGegYqyb0-44" target="R4uhG9D8vYYGGegYqyb0-6">
          <mxGeometry relative="1" as="geometry">
            <Array as="points">
              <mxPoint x="2723" y="340" />
            </Array>
          </mxGeometry>
        </mxCell>
        <mxCell id="R4uhG9D8vYYGGegYqyb0-62" style="edgeStyle=orthogonalEdgeStyle;rounded=0;orthogonalLoop=1;jettySize=auto;html=1;entryX=0.5;entryY=1;entryDx=0;entryDy=0;startArrow=classic;startFill=1;" edge="1" parent="1" source="R4uhG9D8vYYGGegYqyb0-78" target="R4uhG9D8vYYGGegYqyb0-19">
          <mxGeometry relative="1" as="geometry">
            <mxPoint x="1375" y="279.9999999999998" as="sourcePoint" />
          </mxGeometry>
        </mxCell>
        <mxCell id="R4uhG9D8vYYGGegYqyb0-63" value="" style="swimlane;startSize=0;" vertex="1" parent="1">
          <mxGeometry x="1290" y="400" width="190" height="280" as="geometry">
            <mxRectangle x="1485" y="390" width="50" height="40" as="alternateBounds" />
          </mxGeometry>
        </mxCell>
        <mxCell id="R4uhG9D8vYYGGegYqyb0-64" value="&lt;div style=&quot;font-size: 14px;&quot;&gt;&lt;span style=&quot;background-color: initial; font-family: &amp;quot;Lucida Console&amp;quot;;&quot;&gt;MAC : 00:0E:08:3A:57:96&lt;/span&gt;&lt;br&gt;&lt;/div&gt;&lt;font style=&quot;font-size: 14px;&quot; face=&quot;Lucida Console&quot;&gt;&lt;div style=&quot;&quot;&gt;&lt;span style=&quot;background-color: initial;&quot;&gt;IP :&amp;nbsp;&lt;br&gt;VLAN : 555&lt;/span&gt;&lt;/div&gt;&lt;/font&gt;" style="text;html=1;strokeColor=none;fillColor=none;align=left;verticalAlign=middle;whiteSpace=wrap;rounded=0;rotation=90;" vertex="1" parent="R4uhG9D8vYYGGegYqyb0-63">
          <mxGeometry y="120" width="295" height="70" as="geometry" />
        </mxCell>
        <mxCell id="R4uhG9D8vYYGGegYqyb0-65" style="edgeStyle=orthogonalEdgeStyle;rounded=0;orthogonalLoop=1;jettySize=auto;html=1;exitX=0.5;exitY=0;exitDx=0;exitDy=0;exitPerimeter=0;entryX=0.5;entryY=1;entryDx=0;entryDy=0;startArrow=classic;startFill=1;" edge="1" parent="1" source="R4uhG9D8vYYGGegYqyb0-66" target="R4uhG9D8vYYGGegYqyb0-17">
          <mxGeometry relative="1" as="geometry" />
        </mxCell>
        <mxCell id="R4uhG9D8vYYGGegYqyb0-66" value="" style="fontColor=#0066CC;verticalAlign=top;verticalLabelPosition=bottom;labelPosition=center;align=center;html=1;outlineConnect=0;fillColor=#CCCCCC;strokeColor=#6881B3;gradientColor=none;gradientDirection=north;strokeWidth=2;shape=mxgraph.networks.server;" vertex="1" parent="1">
          <mxGeometry x="1120" y="280" width="90" height="100" as="geometry" />
        </mxCell>
        <mxCell id="R4uhG9D8vYYGGegYqyb0-67" value="" style="swimlane;startSize=0;" vertex="1" parent="1">
          <mxGeometry x="1080" y="400" width="185" height="280" as="geometry">
            <mxRectangle x="1485" y="390" width="50" height="40" as="alternateBounds" />
          </mxGeometry>
        </mxCell>
        <mxCell id="R4uhG9D8vYYGGegYqyb0-68" value="&lt;div style=&quot;font-size: 14px;&quot;&gt;&lt;span style=&quot;background-color: initial; font-family: &amp;quot;Lucida Console&amp;quot;;&quot;&gt;MAC : 00:1A:4B:91:B1:39&lt;/span&gt;&lt;br&gt;&lt;/div&gt;&lt;font style=&quot;font-size: 14px;&quot; face=&quot;Lucida Console&quot;&gt;&lt;div style=&quot;&quot;&gt;&lt;span style=&quot;background-color: initial;&quot;&gt;IP :&amp;nbsp;&lt;br&gt;VLAN : 555&lt;/span&gt;&lt;/div&gt;&lt;/font&gt;" style="text;html=1;strokeColor=none;fillColor=none;align=left;verticalAlign=middle;whiteSpace=wrap;rounded=0;rotation=90;" vertex="1" parent="R4uhG9D8vYYGGegYqyb0-67">
          <mxGeometry x="-25" y="100" width="295" height="110" as="geometry" />
        </mxCell>
        <mxCell id="R4uhG9D8vYYGGegYqyb0-69" style="edgeStyle=orthogonalEdgeStyle;rounded=0;orthogonalLoop=1;jettySize=auto;html=1;exitX=0.525;exitY=0.039;exitDx=0;exitDy=0;exitPerimeter=0;entryX=0.5;entryY=1;entryDx=0;entryDy=0;startArrow=classic;startFill=1;" edge="1" parent="1" source="R4uhG9D8vYYGGegYqyb0-79" target="R4uhG9D8vYYGGegYqyb0-27">
          <mxGeometry relative="1" as="geometry">
            <mxPoint x="955" y="279.9999999999998" as="sourcePoint" />
            <Array as="points">
              <mxPoint x="963" y="240" />
              <mxPoint x="1143" y="240" />
            </Array>
          </mxGeometry>
        </mxCell>
        <mxCell id="R4uhG9D8vYYGGegYqyb0-70" value="" style="swimlane;startSize=0;" vertex="1" parent="1">
          <mxGeometry x="870" y="400" width="190" height="280" as="geometry">
            <mxRectangle x="1485" y="390" width="50" height="40" as="alternateBounds" />
          </mxGeometry>
        </mxCell>
        <mxCell id="R4uhG9D8vYYGGegYqyb0-71" value="&lt;div style=&quot;font-size: 14px;&quot;&gt;&lt;span style=&quot;background-color: initial; font-family: &amp;quot;Lucida Console&amp;quot;;&quot;&gt;MAC : 00:0E:08:3A:57:9B&lt;/span&gt;&lt;/div&gt;&lt;font style=&quot;font-size: 14px;&quot; face=&quot;Lucida Console&quot;&gt;&lt;div style=&quot;&quot;&gt;&lt;span style=&quot;background-color: initial;&quot;&gt;IP : 192.168.228.11&lt;br&gt;VLAN : 333&lt;/span&gt;&lt;/div&gt;&lt;/font&gt;" style="text;html=1;strokeColor=none;fillColor=none;align=left;verticalAlign=middle;whiteSpace=wrap;rounded=0;rotation=90;" vertex="1" parent="R4uhG9D8vYYGGegYqyb0-70">
          <mxGeometry x="-10" y="125" width="295" height="60" as="geometry" />
        </mxCell>
        <mxCell id="R4uhG9D8vYYGGegYqyb0-72" style="edgeStyle=orthogonalEdgeStyle;rounded=0;orthogonalLoop=1;jettySize=auto;html=1;exitX=0.5;exitY=0;exitDx=0;exitDy=0;exitPerimeter=0;entryX=0.5;entryY=1;entryDx=0;entryDy=0;startArrow=classic;startFill=1;" edge="1" parent="1" source="R4uhG9D8vYYGGegYqyb0-80" target="R4uhG9D8vYYGGegYqyb0-25">
          <mxGeometry relative="1" as="geometry">
            <Array as="points">
              <mxPoint x="745" y="180" />
              <mxPoint x="1033" y="180" />
            </Array>
            <mxPoint x="745" y="279.9999999999998" as="sourcePoint" />
          </mxGeometry>
        </mxCell>
        <mxCell id="R4uhG9D8vYYGGegYqyb0-73" value="" style="swimlane;startSize=0;" vertex="1" parent="1">
          <mxGeometry x="660" y="400" width="190" height="280" as="geometry">
            <mxRectangle x="1485" y="390" width="50" height="40" as="alternateBounds" />
          </mxGeometry>
        </mxCell>
        <mxCell id="R4uhG9D8vYYGGegYqyb0-74" value="&lt;div style=&quot;font-size: 14px;&quot;&gt;&lt;span style=&quot;background-color: initial; font-family: &amp;quot;Lucida Console&amp;quot;;&quot;&gt;MAC : B8:70:F4:E7:AA:4A&lt;/span&gt;&lt;/div&gt;&lt;font style=&quot;font-size: 14px;&quot; face=&quot;Lucida Console&quot;&gt;&lt;div style=&quot;&quot;&gt;&lt;span style=&quot;background-color: initial;&quot;&gt;IP : 192.168.225.1&lt;br&gt;VLAN : 333&lt;/span&gt;&lt;/div&gt;&lt;/font&gt;" style="text;html=1;strokeColor=none;fillColor=none;align=left;verticalAlign=middle;whiteSpace=wrap;rounded=0;rotation=90;" vertex="1" parent="R4uhG9D8vYYGGegYqyb0-73">
          <mxGeometry y="125" width="295" height="60" as="geometry" />
        </mxCell>
        <mxCell id="R4uhG9D8vYYGGegYqyb0-75" style="edgeStyle=orthogonalEdgeStyle;rounded=0;orthogonalLoop=1;jettySize=auto;html=1;entryX=0.5;entryY=1;entryDx=0;entryDy=0;startArrow=classic;startFill=1;" edge="1" parent="1" source="R4uhG9D8vYYGGegYqyb0-83" target="R4uhG9D8vYYGGegYqyb0-33">
          <mxGeometry relative="1" as="geometry">
            <Array as="points">
              <mxPoint x="535" y="160" />
              <mxPoint x="798" y="160" />
            </Array>
            <mxPoint x="535" y="280" as="sourcePoint" />
          </mxGeometry>
        </mxCell>
        <mxCell id="R4uhG9D8vYYGGegYqyb0-76" value="" style="swimlane;startSize=0;" vertex="1" parent="1">
          <mxGeometry x="447.5" y="480" width="185" height="280" as="geometry">
            <mxRectangle x="1485" y="390" width="50" height="40" as="alternateBounds" />
          </mxGeometry>
        </mxCell>
        <mxCell id="R4uhG9D8vYYGGegYqyb0-77" value="&lt;div style=&quot;font-size: 14px;&quot;&gt;&lt;span style=&quot;background-color: initial; font-family: &amp;quot;Lucida Console&amp;quot;;&quot;&gt;MAC : 00:1B:D4:0B:6D:4D&lt;/span&gt;&lt;/div&gt;&lt;font style=&quot;font-size: 14px;&quot; face=&quot;Lucida Console&quot;&gt;&lt;div style=&quot;&quot;&gt;&lt;span style=&quot;background-color: initial;&quot;&gt;IP :&amp;nbsp;&lt;br&gt;VLAN : 1&lt;/span&gt;&lt;/div&gt;&lt;/font&gt;" style="text;html=1;strokeColor=none;fillColor=none;align=left;verticalAlign=middle;whiteSpace=wrap;rounded=0;rotation=90;" vertex="1" parent="R4uhG9D8vYYGGegYqyb0-76">
          <mxGeometry x="-25" y="100" width="295" height="110" as="geometry" />
        </mxCell>
        <mxCell id="R4uhG9D8vYYGGegYqyb0-78" value="" style="shape=mxgraph.cisco.modems_and_phones.ip_phone;sketch=0;html=1;pointerEvents=1;dashed=0;fillColor=#036897;strokeColor=#ffffff;strokeWidth=2;verticalLabelPosition=bottom;verticalAlign=top;align=center;outlineConnect=0;" vertex="1" parent="1">
          <mxGeometry x="1305" y="280" width="140" height="85" as="geometry" />
        </mxCell>
        <mxCell id="R4uhG9D8vYYGGegYqyb0-79" value="" style="shape=mxgraph.cisco.modems_and_phones.ip_phone;sketch=0;html=1;pointerEvents=1;dashed=0;fillColor=#036897;strokeColor=#ffffff;strokeWidth=2;verticalLabelPosition=bottom;verticalAlign=top;align=center;outlineConnect=0;" vertex="1" parent="1">
          <mxGeometry x="890" y="280" width="140" height="85" as="geometry" />
        </mxCell>
        <mxCell id="R4uhG9D8vYYGGegYqyb0-80" value="" style="fontColor=#0066CC;verticalAlign=top;verticalLabelPosition=bottom;labelPosition=center;align=center;html=1;outlineConnect=0;fillColor=#CCCCCC;strokeColor=#6881B3;gradientColor=none;gradientDirection=north;strokeWidth=2;shape=mxgraph.networks.laptop;" vertex="1" parent="1">
          <mxGeometry x="680" y="285" width="130" height="90" as="geometry" />
        </mxCell>
        <mxCell id="R4uhG9D8vYYGGegYqyb0-81" value="" style="shape=mxgraph.cisco.modems_and_phones.rf_modem;sketch=0;html=1;pointerEvents=1;dashed=0;fillColor=#036897;strokeColor=#ffffff;strokeWidth=2;verticalLabelPosition=bottom;verticalAlign=top;align=center;outlineConnect=0;" vertex="1" parent="1">
          <mxGeometry x="474.5" y="405" width="131" height="70" as="geometry" />
        </mxCell>
        <mxCell id="R4uhG9D8vYYGGegYqyb0-82" style="edgeStyle=orthogonalEdgeStyle;rounded=0;orthogonalLoop=1;jettySize=auto;html=1;entryX=0.5;entryY=0;entryDx=0;entryDy=0;entryPerimeter=0;startArrow=classic;startFill=1;" edge="1" parent="1" source="R4uhG9D8vYYGGegYqyb0-83" target="R4uhG9D8vYYGGegYqyb0-81">
          <mxGeometry relative="1" as="geometry" />
        </mxCell>
        <mxCell id="R4uhG9D8vYYGGegYqyb0-83" value="" style="fontColor=#0066CC;verticalAlign=top;verticalLabelPosition=bottom;labelPosition=center;align=center;html=1;outlineConnect=0;fillColor=#CCCCCC;strokeColor=#6881B3;gradientColor=none;gradientDirection=north;strokeWidth=2;shape=mxgraph.networks.switch;" vertex="1" parent="1">
          <mxGeometry x="490" y="310" width="100" height="30" as="geometry" />
        </mxCell>
        <mxCell id="R4uhG9D8vYYGGegYqyb0-84" value="" style="shape=mxgraph.cisco.modems_and_phones.ip_phone;sketch=0;html=1;pointerEvents=1;dashed=0;fillColor=#036897;strokeColor=#ffffff;strokeWidth=2;verticalLabelPosition=bottom;verticalAlign=top;align=center;outlineConnect=0;" vertex="1" parent="1">
          <mxGeometry x="47.5" y="390" width="140" height="85" as="geometry" />
        </mxCell>
        <mxCell id="R4uhG9D8vYYGGegYqyb0-85" value="" style="shape=mxgraph.cisco.modems_and_phones.ip_phone;sketch=0;html=1;pointerEvents=1;dashed=0;fillColor=#036897;strokeColor=#ffffff;strokeWidth=2;verticalLabelPosition=bottom;verticalAlign=top;align=center;outlineConnect=0;" vertex="1" parent="1">
          <mxGeometry x="257.5" y="390" width="140" height="85" as="geometry" />
        </mxCell>
        <mxCell id="R4uhG9D8vYYGGegYqyb0-86" value="" style="swimlane;startSize=0;" vertex="1" parent="1">
          <mxGeometry x="235" y="480" width="185" height="280" as="geometry">
            <mxRectangle x="1485" y="390" width="50" height="40" as="alternateBounds" />
          </mxGeometry>
        </mxCell>
        <mxCell id="R4uhG9D8vYYGGegYqyb0-87" value="&lt;div style=&quot;font-size: 14px;&quot;&gt;&lt;span style=&quot;background-color: initial; font-family: &amp;quot;Lucida Console&amp;quot;;&quot;&gt;MAC : 00:1B:D4:0B:6D:4D&lt;/span&gt;&lt;/div&gt;&lt;font style=&quot;font-size: 14px;&quot; face=&quot;Lucida Console&quot;&gt;&lt;div style=&quot;&quot;&gt;&lt;span style=&quot;background-color: initial;&quot;&gt;IP :&amp;nbsp;&lt;br&gt;VLAN : 1&lt;/span&gt;&lt;/div&gt;&lt;/font&gt;" style="text;html=1;strokeColor=none;fillColor=none;align=left;verticalAlign=middle;whiteSpace=wrap;rounded=0;rotation=90;" vertex="1" parent="R4uhG9D8vYYGGegYqyb0-86">
          <mxGeometry x="-25" y="100" width="295" height="110" as="geometry" />
        </mxCell>
        <mxCell id="R4uhG9D8vYYGGegYqyb0-88" value="" style="swimlane;startSize=0;" vertex="1" parent="1">
          <mxGeometry x="25" y="480" width="185" height="280" as="geometry">
            <mxRectangle x="1485" y="390" width="50" height="40" as="alternateBounds" />
          </mxGeometry>
        </mxCell>
        <mxCell id="R4uhG9D8vYYGGegYqyb0-89" value="&lt;div style=&quot;font-size: 14px;&quot;&gt;&lt;span style=&quot;background-color: initial; font-family: &amp;quot;Lucida Console&amp;quot;;&quot;&gt;MAC : 00:1B:D4:0B:6D:4D&lt;/span&gt;&lt;/div&gt;&lt;font style=&quot;font-size: 14px;&quot; face=&quot;Lucida Console&quot;&gt;&lt;div style=&quot;&quot;&gt;&lt;span style=&quot;background-color: initial;&quot;&gt;IP :&amp;nbsp;&lt;br&gt;VLAN : 1&lt;/span&gt;&lt;/div&gt;&lt;/font&gt;" style="text;html=1;strokeColor=none;fillColor=none;align=left;verticalAlign=middle;whiteSpace=wrap;rounded=0;rotation=90;" vertex="1" parent="R4uhG9D8vYYGGegYqyb0-88">
          <mxGeometry x="-25" y="100" width="295" height="110" as="geometry" />
        </mxCell>
        <mxCell id="R4uhG9D8vYYGGegYqyb0-178" value="" style="shape=mxgraph.cisco.modems_and_phones.ip_phone;sketch=0;html=1;pointerEvents=1;dashed=0;fillColor=#036897;strokeColor=#ffffff;strokeWidth=2;verticalLabelPosition=bottom;verticalAlign=top;align=center;outlineConnect=0;" vertex="1" parent="1">
          <mxGeometry x="-167.5" y="390" width="140" height="85" as="geometry" />
        </mxCell>
        <mxCell id="R4uhG9D8vYYGGegYqyb0-179" value="" style="swimlane;startSize=0;" vertex="1" parent="1">
          <mxGeometry x="-190" y="480" width="185" height="280" as="geometry">
            <mxRectangle x="1485" y="390" width="50" height="40" as="alternateBounds" />
          </mxGeometry>
        </mxCell>
        <mxCell id="R4uhG9D8vYYGGegYqyb0-180" value="&lt;div style=&quot;font-size: 14px;&quot;&gt;&lt;span style=&quot;background-color: initial; font-family: &amp;quot;Lucida Console&amp;quot;;&quot;&gt;MAC : 00:1B:D4:0B:6D:4D&lt;/span&gt;&lt;/div&gt;&lt;font style=&quot;font-size: 14px;&quot; face=&quot;Lucida Console&quot;&gt;&lt;div style=&quot;&quot;&gt;&lt;span style=&quot;background-color: initial;&quot;&gt;IP :&amp;nbsp;&lt;br&gt;VLAN : 1&lt;/span&gt;&lt;/div&gt;&lt;/font&gt;" style="text;html=1;strokeColor=none;fillColor=none;align=left;verticalAlign=middle;whiteSpace=wrap;rounded=0;rotation=90;" vertex="1" parent="R4uhG9D8vYYGGegYqyb0-179">
          <mxGeometry x="-25" y="100" width="295" height="110" as="geometry" />
        </mxCell>
      </root>
    </mxGraphModel>
  </diagram>
</mxfile>
